<svg width="750" height="750" viewBox="0 0 750 750" fill="none" xmlns="http://www.w3.org/2000/svg">
<rect width="750" height="750" fill="#2E3035"/>
<rect x="315" y="125" width="120" height="220" fill="#B5A621"/>
<rect x="137" y="195" width="120" height="150" fill="#A2A2A2"/>
<rect x="493" y="265" width="120" height="80" fill="#8A5608"/>
<path d="M428.009 125L374.999 178.009L361 164.01L400 125H428.009Z" fill="#7289DA"/>
<path d="M322 125.005L375.009 178.014L389.009 164.015L350.009 125.005H322Z" fill="#7289DA"/>
<path d="M250.009 195L196.999 248.009L183 234.01L222 195H250.009Z" fill="#7289DA"/>
<path d="M144 195.005L197.009 248.014L211.009 234.015L172.009 195.005H144Z" fill="#7289DA"/>
<path d="M606.009 265L552.999 318.009L539 304.01L578 265H606.009Z" fill="#7289DA"/>
<path d="M500 265.005L553.009 318.014L567.009 304.015L528.009 265.005H500Z" fill="#7289DA"/>
<circle cx="375" cy="179" r="21.5" fill="#9B8E1C" stroke="#5B5311" stroke-width="5"/>
<circle cx="197" cy="249" r="21.5" fill="#8C8C8C" stroke="#5E5E5E" stroke-width="5"/>
<circle cx="553" cy="319" r="21" fill="#653F06" stroke="#432A04" stroke-width="6"/>
<path d="M378.009 169.545V187H374.318V173.048H374.216L370.219 175.554V172.281L374.54 169.545H378.009Z" fill="#5A5311"/>
<path d="M190.415 257V254.341L196.628 248.588C197.156 248.077 197.599 247.616 197.957 247.207C198.321 246.798 198.597 246.398 198.784 246.006C198.972 245.608 199.065 245.179 199.065 244.719C199.065 244.207 198.949 243.767 198.716 243.398C198.483 243.023 198.165 242.736 197.761 242.537C197.358 242.332 196.901 242.23 196.389 242.23C195.855 242.23 195.389 242.338 194.991 242.554C194.594 242.77 194.287 243.08 194.071 243.483C193.855 243.886 193.747 244.366 193.747 244.923H190.244C190.244 243.781 190.503 242.79 191.02 241.949C191.537 241.108 192.261 240.457 193.193 239.997C194.125 239.537 195.199 239.307 196.415 239.307C197.665 239.307 198.753 239.528 199.679 239.972C200.611 240.409 201.335 241.017 201.852 241.795C202.369 242.574 202.628 243.466 202.628 244.472C202.628 245.131 202.497 245.781 202.236 246.423C201.98 247.065 201.523 247.778 200.864 248.562C200.205 249.341 199.276 250.276 198.077 251.366L195.528 253.864V253.983H202.858V257H190.415Z" fill="#5E5E5E"/>
<path d="M552.866 328.239C551.594 328.239 550.46 328.02 549.466 327.582C548.477 327.139 547.696 326.531 547.122 325.759C546.554 324.98 546.261 324.082 546.244 323.065H549.96C549.983 323.491 550.122 323.866 550.378 324.19C550.639 324.509 550.986 324.756 551.418 324.932C551.849 325.108 552.335 325.196 552.875 325.196C553.438 325.196 553.935 325.097 554.366 324.898C554.798 324.699 555.136 324.423 555.381 324.071C555.625 323.719 555.747 323.312 555.747 322.852C555.747 322.386 555.616 321.974 555.355 321.616C555.099 321.253 554.73 320.969 554.247 320.764C553.77 320.56 553.202 320.457 552.543 320.457H550.915V317.747H552.543C553.099 317.747 553.591 317.651 554.017 317.457C554.449 317.264 554.784 316.997 555.023 316.656C555.261 316.31 555.381 315.906 555.381 315.446C555.381 315.009 555.276 314.625 555.065 314.295C554.861 313.96 554.571 313.699 554.196 313.511C553.827 313.324 553.395 313.23 552.901 313.23C552.401 313.23 551.943 313.321 551.528 313.503C551.114 313.679 550.781 313.932 550.531 314.261C550.281 314.591 550.148 314.977 550.131 315.42H546.594C546.611 314.415 546.898 313.528 547.455 312.761C548.011 311.994 548.761 311.395 549.705 310.963C550.653 310.526 551.724 310.307 552.918 310.307C554.122 310.307 555.176 310.526 556.08 310.963C556.983 311.401 557.685 311.991 558.185 312.736C558.69 313.474 558.94 314.304 558.935 315.224C558.94 316.202 558.636 317.017 558.023 317.67C557.415 318.324 556.622 318.739 555.645 318.915V319.051C556.929 319.216 557.906 319.662 558.577 320.389C559.253 321.111 559.588 322.014 559.582 323.099C559.588 324.094 559.301 324.977 558.722 325.75C558.148 326.523 557.355 327.131 556.344 327.574C555.332 328.017 554.173 328.239 552.866 328.239Z" fill="#432A04"/>
<circle cx="375" cy="64" r="42" fill="#D9D9D9"/>
<circle cx="197" cy="125" r="42" fill="#D9D9D9"/>
<circle cx="553" cy="203" r="42" fill="#D9D9D9"/>
</svg>
